<svg version="1" xmlns="http://www.w3.org/2000/svg" width="933.333" height="933.333" viewBox="0 0 700.000000 700.000000"><path d="M472.5 78.8c-2.2 2-5.8 5.2-8 7l-4 3.3 4.5-.7c6.3-.9 6.9-1.4 9.5-7.7 1.2-3.2 2.2-5.7 2.1-5.7 0 0-1.9 1.7-4.1 3.8zM174 95.6c-16.9 3.1-24.5 5.6-38.9 12.8-13.5 6.8-25.9 15.2-32.6 22.1-12.4 12.8-23.3 31-28.8 48.2-4.9 15-5.2 17.7-5.2 41.8 0 25.4 1.3 35.5 6.6 51.8 1.6 4.9 2.9 9.1 2.9 9.3 0 1.3-12.7-1.2-28.5-5.7-8.4-2.4-22.8-8.1-30.7-12-6.3-3.2-6.8-3.3-6.8-2.1 0 .9 15.7 8.5 25 12 3 1.2 9.7 3.3 14.9 4.8 10.7 3 9.2 2.7 19.3 4.4l7.8 1.3 3.6 6.4c7.6 13.6 22.3 31.3 35.4 42.5 5.5 4.7 5.5 4.8 2.5 4.8-9.1.1-26.1 5.6-44.8 14.5-24.2 11.4-29.6 13.9-41.2 19-16.6 7.2-21.3 9.4-26.7 12.8-9.4 5.7-4.5 4.4 8.8-2.4 15.3-7.7 32.5-13.7 49.1-17 10-2.1 14.8-2.1 11.7-.1-2.5 1.6-11.4 14.4-14.4 20.8-20.5 43.5 1.2 95 46.7 110.9 24.9 8.7 55.4 3.7 75.1-12.2 2.9-2.4 4.3-3 4.6-2.1.3.7 1.7 5.3 3.2 10.3 7.4 24.6 21.7 47.1 43.2 67.6 6 5.7 14.6 13.3 19.3 16.8l8.4 6.4-8.1-8.4c-38.7-40.5-48.5-56.4-56.5-91.8-2.3-10-2.3-10.1-.3-12.3 12-13.8 17.8-31.7 17.3-53.1l-.3-11.8 6.7-3.9c7.7-4.5 6.5-5.7 9.1 9.5.9 4.9 1.6 13.2 1.6 18.3 0 10 1 13.2 3.9 13.2 3.3 0 4.4 2.9 5.8 15.8.8 7 2 13 2.6 13.4.7.4 3 .8 5.2.8 5.4 0 8.5 2.3 8.5 6.1 0 3.2 1.6 6.9 3.4 8.1.6.4 2.5.8 4.3.8 7 0 8.3 2.8 3.3 7.2-2.2 1.9-3 3.5-3 6 0 9.7 5.2 17.1 12.6 18.2 5.9.8 7.4 2 7.4 6.2 0 3.9 2.1 5.4 7.7 5.4 4.1 0 8.3 2.3 8.3 4.5 0 .8-2.3 4-5 7.1-3.9 4.5-5 6.4-5 9.2 0 6.5 4.8 12 19.1 21.7 10.1 6.9 13.9 10.3 13.9 12.5 0 2.2-4.5 6.3-9.7 8.9-6.1 3-8 8-5.2 13.4 1.4 2.7 9 10.7 10.1 10.7.5 0-.5-2.6-2.3-5.7-2.7-5-3-6.2-2-8.5.7-1.8 2-2.9 3.8-3.3 5.1-1 11.4-4.8 12.9-7.6 2.3-4.6 1.7-9.9-2.1-17.3-3.8-7.5-3.9-7.6-2.7-7.6 1.8 0 8.6 7.8 11.2 12.9 1.5 3.1 4.9 7.5 7.4 9.9 5.1 4.8 5.2 4.1-.9 12.5-7.3 10.2-7 17.1 1.2 25.1 2.5 2.5 4.8 4.4 5 4.2.2-.2-.8-2.3-2.2-4.7-4-7.1-2.8-12.7 3.3-15.9 2.3-1.1 2.4-1.1 1.8 1.7-.4 1.6-.2 4.1.3 5.6 1.6 4 13.8 16.4 20.2 20.3 6.1 3.8 6.2 4 7.4 14.4 1.3 11 9.3 40.2 11.3 41.4 1.1.6 27.4-4.2 38.7-7 47.5-11.9 92.4-33.6 130.2-63.1 57.4-44.6 98-103.3 120.8-174.3 15.1-47.3 19.2-104.5 11-156.3-9.3-59.6-34-115.9-71.2-162.9-2.9-3.7-5.7-6.9-6.2-7.2-.5-.3-6.1.1-12.5.9l-11.7 1.4-8.2-6.5c-24.1-19-59.9-27.9-92.8-22.9-14.6 2.2-19.9 4.4-40.2 17.3-10 6.3-15.6 7.5-22 4.8l-3.8-1.5.7 3.7c2 11 9.3 17.3 22 19.1 8 1.2 28.4-.1 38.9-2.4 9.8-2.1 21-1.9 28.6.4 7.4 2.4 16.9 6.4 16.9 7.2 0 .4-3.7 2.8-8.2 5.4-12.7 7.3-28.2 18.9-38.7 29.1l-9.5 9.1-8.6-7.6c-14.7-13-30.3-19.1-48.7-19.1-7 0-17.4 2-21.1 4-9.9 5.3-18.8 11.3-24 16.1-3.4 3.3-6.8 5.9-7.5 5.9-.7 0-4.8-2.8-9.2-6.3-12.4-9.7-18.2-13.1-28.5-16.8-9.2-3.3-9.9-3.4-24.5-3.3-17.3 0-23.3 1.3-36.4 7.6-9.6 4.6-19.1 13.1-37.5 33.8-6.1 6.9-11.3 12.7-11.6 13-.3.3-4.1 4.5-8.4 9.5-14.4 16.3-27.7 29-33.5 31.8-10.4 5.1-19.4 3.1-29-6.5-7.3-7.3-10.9-15.1-12.2-26.8-2.1-18.1.7-31.3 10.4-49 11.2-20.4 27.3-31.8 54.6-38.6 12.3-3.1 19.8-3 36.2.2 11.6 2.3 15.1 2.6 25.9 2.1 6.9-.3 14.8-1.2 17.7-2 11-3.1 17.1-9.9 18.1-19.9l.5-4.9-4 2.1c-2.7 1.3-6 2.1-10 2.1-6.7.1-11.2-1.8-24.4-10.2-9.6-6.2-19.7-10.8-25.1-11.4-2.4-.3-7-1-10.3-1.5-8.8-1.4-43.6-1-52.5.6zm59.2 5.8c9.4 2 15.2 4.6 28.8 12.6 5.8 3.4 12.2 6.9 14.4 7.6 4.5 1.6 12.4 1.8 16 .4 3.5-1.3 3.3.1-.5 4.5-4.1 4.6-10.6 7.4-20.4 8.6-9.4 1.3-17.1.7-32.1-2.2-35.1-6.9-73.1 6.6-90.4 32.1-5.2 7.6-12.9 23.1-15.2 30.5-2.4 7.5-3.4 24.7-2 34.3.6 4 2.4 10.1 4 13.5 3.5 7.6 11.9 16.9 18.6 20.8 4.4 2.5 6.1 2.9 12.7 2.9 10.9 0 17.4-3.5 29.9-16 10-9.9 11.2-11.3 25-27.5 4.7-5.5 8.7-10.2 9-10.5.3-.3 4.1-4.6 8.5-9.5 23.5-26.6 33.3-32.7 55.7-34.8 15.3-1.4 26.5-.1 37.1 4.3 10.1 4.2 14.9 7.5 25.4 17.5l8.8 8.4 5.1-.6c6-.6 9.2.7 14.6 6.4 4.7 4.8 5.8 7.9 5.8 15.8 0 6 1.4 9.5 3.9 9.5.5 0 2 1.1 3.4 2.4 1.5 1.4 2.9 2 3.3 1.5.3-.5-1.1-2.5-3.2-4.4l-3.7-3.4.7-6.4c1-10.3-2.2-17-11.1-23.4-6.3-4.4-6.3-4.6-1.2-2.8 14.6 5.1 27.7 14.4 32 22.7 4.4 8.5 1.4 16.4-9 23.9-9.4 6.8-11.5 13.2-5.9 17.7 7.3 5.8 8 8 4 12.4-2.6 3-4.2 2.3-2.9-1.2 1.7-4.4-.1-8-5.8-11.7-2.7-1.8-7.5-4-10.5-4.9-7.2-2.1-14.6-6.1-17.5-9.6-4.8-5.6-7.5-23.9-5.2-35.3l.8-4-2 2.4-1.9 2.5-9.3-8.8c-5.2-4.8-11.3-9.9-13.6-11.3-12-7-34.9-8-49.8-2.1-21.6 8.5-34.1 18.7-56.5 45.8-8.1 9.9-22.4 24.1-29.5 29.5-3.8 2.9-11 7.4-16 10.1-4.9 2.6-11.2 6.9-13.8 9.4-2.7 2.5-5.2 4.6-5.6 4.8-.4.1-2.7-1.8-5.1-4.4l-4.2-4.6-7.3.7-7.2.6-1.4-7.3c-1.5-7.9-1-7.5-10.7-9.8-3.3-.9-4.2-1.5-3.8-2.8.3-.9.8-5.5 1.1-10.2l.7-8.5-4.7-2.8-4.6-2.7 3.6-6.4 3.5-6.3-3.6-6.9-3.6-6.9 4.7-7.7 4.7-7.6-1.8-7.6-1.8-7.6 2.4-1.7c7.9-5.5 8.7-6.8 9.4-15.1l.7-7.9 7.3-2.3 7.3-2.3 3.6-7.3 3.7-7.4H175.7l4.3-5.1 4.3-5.2 5.6.6c7.6.8 18.7-.9 22.1-3.3 3.6-2.6 4.1-2.5 9.6 1 4.2 2.6 4.9 2.8 7.3 1.6 10.5-5.3 9.3-5.2 19.4-1.7 10.8 3.8 14.7 5.1 14.7 4.7 0-.2-3.2-2.9-7.2-6.1-6.7-5.4-7.8-5.9-15.3-7.1-4.4-.7-11.4-2.1-15.5-3-7.5-1.6-7.5-1.6-16.2 1l-8.7 2.7-8.3-1.7-8.4-1.8-6.4 3.9c-6.3 3.8-6.7 3.8-15.1 3.6l-8.7-.2-4 6.5-4.1 6.4-6.8.7c-3.7.3-7.3.8-8 1-.6.2-3 3.5-5.3 7.4-3.4 5.8-5 7.4-8.8 9.2-2.6 1.2-4.9 2.4-5.1 2.6-.2.1-1 4.4-1.7 9.4-1.2 9-1.3 9.2-5.7 13.3l-4.5 4.1 1.9 7.8 2 7.8-4.3 5.2c-2.4 2.9-4.6 5.3-5 5.5-1.5.7-.7 2.5 3.9 8.4l4.6 6.1-2.4 2.1c-1.3 1.2-3.7 3-5.3 4.2l-2.8 2 6.6 5.3c3.6 2.9 6.6 5.4 6.6 5.6 0 .2-2.9 3.2-6.5 6.6l-6.6 6.3 3.3 1.2c1.8.7 5.5 1.9 8.1 2.6l4.8 1.3-3.3 4.5c-1.8 2.5-4.1 5.4-5 6.4-1 1.1-1.8 2.3-1.8 2.7 0 .5 2.7 1.1 6 1.5 3.3.4 6 1.1 6 1.6s-1.6 3.8-3.5 7.2c-1.9 3.5-3.5 6.6-3.5 6.9 0 .3 3.2.7 7.1.9l7.1.3-2.9 4c-5.2 7.1-5.4 6.7 3.7 5.9 7.8-.6 8.2-.6 7.7 1.2-1.5 5.2-2.9 12.6-2.5 12.9.2.2 2.9-1.6 6-4l5.7-4.4 1.6 7.7c2.6 12.5 2.5 12.4 7.2 4.7 3.7-6 4.2-6.5 4.7-4.4 1.7 6.2 2.9 10.6 3.5 12.8.7 2.4 1 2.2 5.9-3.7l5.1-6.2.3 8.7.3 8.8 5-7.4c2.7-4 5-6.9 5.2-6.5.1.5-1 6.5-2.5 13.4l-2.9 12.5-5.4-.2c-5.8-.2-20.3-4.1-27.8-7.5-14.1-6.4-29-20-41.1-37.8-14.8-21.8-21.3-45.5-21.4-78.5 0-21.3 2.7-34.9 10.1-49.9 12.2-24.9 25.7-39.7 48.3-52.8 17.2-10 30.1-14.6 47.2-16.8 11.1-1.4 45.9-.5 55 1.4zm294.9 1.6c17.7 2 32.8 7.2 45.6 15.6 13.1 8.7 31.9 29.9 41 46.4 9.5 17.1 13.5 43.5 11.3 73.2-1.4 18.4-3.7 27.4-10.6 41.2-13.9 27.7-31.2 45.9-50.4 52.9-3.6 1.3-17.7 4.7-19.5 4.7-.3 0-1.3-1.7-2.4-3.8-1.8-3.5-5.7-21-4.8-21.8.2-.2 2.4 2.6 4.8 6.3l4.4 6.8.5-8 .5-8 3.9 5.4c4.4 6 4.7 5.8 6.7-3.2.7-3.2 1.5-6 1.9-6.2.4-.2 2.2 2.3 4.1 5.6l3.3 6 1.8-8.3c1-4.6 1.9-8.7 2.1-9.1.1-.5 2.5.9 5.2 3.2 2.7 2.2 5.1 3.9 5.3 3.7.2-.3-.4-3.2-1.2-6.6-1.9-7.4-2-8-.3-7.6.6.3 3.8.7 7 1l5.7.6-3.1-5.5-3.1-5.5H601l-3.5-6.3c-1.9-3.5-3.5-6.8-3.5-7.4 0-.6 2.3-1.3 5-1.7 2.8-.4 5-1.2 5-1.7 0-.6-1.3-2.8-2.9-4.8-6-7.7-6-7.7 1.9-10.2l7-2.3-6.1-6.2-6-6.1 5.8-5.2 5.8-5.1-4.3-4.1-4.3-4 3-4.5c5.6-8.2 5.6-7.7.5-13.8l-4.5-5.6 1.5-6.1c2.2-8.3 2.1-8.8-2-13-3.2-3.3-3.7-4.5-4.9-12.3-1.3-9-2-10.2-7.5-12.6-1.6-.7-3.9-3.5-6.1-7.8l-3.5-6.7-7-1-6.9-1-3.6-6-3.6-6-7 .3c-6.6.4-7.3.2-13.5-3.6l-6.6-4-6.8 1.7c-6.9 1.7-7 1.7-14.4-.7-7.4-2.3-7.6-2.3-15.5-.8-4.4.9-10.7 2.1-14 2.7-5.2 1-6.8 1.8-12.5 7l-6.5 5.9 8-2.9c4.4-1.6 9.3-3.4 10.9-4 2.4-1 3.5-.7 8.3 1.9l5.6 3 4.6-3.1c3.5-2.4 4.9-2.9 6.1-2 5.4 3.8 7.7 4.5 17 4.5h9.5l3.8 4.8 3.7 4.8h14.8l2.2 5.7c3.1 7.6 3.1 7.7 9.6 9.9 3.1 1 5.9 2.6 6.4 3.4.4.8 1 4.4 1.3 8 .5 6.2.7 6.7 5.2 10.6l4.7 4.1-1.5 6.8-1.6 6.9 4.1 7.8 4 7.8-3.1 6.3-3.1 6.3 3 5.5c1.6 2.9 3 5.7 3 6 0 .4-1.8 1.9-4 3.4l-4 2.7.7 7.2c1.1 12.9 1.4 11.8-4.7 13.6l-5.5 1.6-1.4 6.9c-.8 3.9-1.5 7.1-1.6 7.2-.1.2-2.8-.2-6-.7-6.5-1.1-7.5-.6-12 6.3l-1.8 2.8-5.6-5.4c-3.4-3.3-8.5-6.9-12.9-9.1-4-1.9-9.3-5.2-11.7-7.2-6.1-5-19.5-20.4-30.5-35.2-14.2-19.2-24.4-28.3-40.7-36.5-9.1-4.6-14.3-5.9-23.3-5.9-5.7.1-9.4.8-14.8 2.8-4 1.4-7.2 2.9-7.2 3.3 0 .4 2.6 2.2 5.8 4.1 8.5 5.2 19.7 16.6 21.1 21.5 2.1 7.7.6 15.2-4 20.1l-2 2.2 8.6.7c5.1.4 9.1 1.2 9.9 2.1.8.8 2 4 2.6 7.2 2.1 11.4 2.8 12.9 8.2 17.3 6.8 5.8 8.8 10.3 8.8 20.5 0 7.3-.3 8.4-2.9 11.9-2.8 3.7-3.1 3.9-8.2 3.6-3.6-.1-8.1.6-13.2 2.2l-7.7 2.5v-4.2c0-3.2.6-4.8 2.5-6.6 1.4-1.3 3-4.1 3.5-6.2.9-3.1 1.5-3.8 3.8-4 4.8-.2 7.4.3 10 2 2.4 1.6 2.4 1.6 1.1-.5-1.7-2.9-5.1-4.3-10-4.3H433l1.9-3.8c1.1-2.2 3.1-4.6 4.5-5.6 3.3-2.1 3.4-5.9.4-8-2.9-2-5.5-2-9.5.2-7.1 3.8-11.3 14.1-11.3 27.8 0 15.3.9 17.5 14.7 36.7 9.2 12.9 14.2 21 19.8 32.4 8.2 16.7 15 25.4 22.4 28.8 3.8 1.7 4.3 1.7 11.6 0 7.1-1.7 7.8-1.7 11-.2 6 2.9 7 5.5 7 19.2 0 11.2-.2 12.3-2.6 16-6.7 10.3-23.6 22.4-38.8 27.9-10.6 3.8-11.6 4.6-5.1 4 3-.3 8.4-1 11.9-1.6 5.4-.9 6.6-.9 7 .3.5 1.6 6.2 7.2 11 10.7 2.4 1.8 3.1 3.1 3.1 5.7 0 3.9-1.7 5.9-6.8 8.2-3 1.3-6.7 1.6-20.4 1.4-16.1-.2-17-.1-31.5 3.4-23.5 5.9-40.7 5.8-53-.1-6.5-3.1-14-11.3-21.1-22.9l-5.2-8.7 1.1-6.7c.6-3.6 2.3-8.9 3.8-11.6 3.7-7.1 3.7-7.3.3-4.1-2.1 1.9-3.8 5.2-5.4 10.2-1.2 4-2.5 7.1-2.9 6.8-.5-.2-1.7-2.3-2.9-4.7-3.4-6.7-8.9-13.7-11.6-14.7-1.4-.6-4-1-5.7-.9l-3.2.1 3.5 1.5c5.9 2.5 7.9 5.2 15.7 20.8 18.8 37.4 29.2 45.9 56.3 46 9.1 0 13.5-.5 21-2.5 7.8-2 11.9-2.4 23-2.5 7.4 0 16.1.4 19.2.8l5.7.8.7 6.7c.7 7-.8 17.5-2.9 20.1-.9 1.1-3.2 1.2-10.3.8-21.6-1.4-77.4 6.8-77.4 11.5 0 .4 1.5.8 3.3.8 4.1.1 10.3 2.3 12.8 4.6 2.8 2.5 7.1 2.2 13.4-1.1 4.8-2.4 6.4-2.7 11-2.2 7.5.8 7.8 1.1 7 6.9-.7 4.7-.5 5.3 3.1 10.6 3.4 4.9 3.9 6.3 3.9 11.5v5.8l-6 5.4-6 5.3-.3-2.9c-.2-1.6-.6-2.9-1-2.9s-2 1.8-3.5 4c-1.6 2.2-4.2 4.7-5.8 5.5L411 584l2-5c2-5.2 2.6-14.7 1.1-18.5-.6-1.5-1-.7-1.6 3.5-1.4 10.3-6 15.7-19.1 22.3-15.6 7.9-19.7 15.4-13.9 25.6 1.4 2.3 2.5 4.5 2.5 4.8 0 .2-1.8-.8-3.9-2.4-6.2-4.4-8.4-9.3-8.8-19.2l-.2-8.4-4-1.8c-5.9-2.6-14.3-9.3-16.6-13.1-2.9-4.9-2.7-13.3.4-17.6 1.3-1.8 2.1-3.5 1.9-3.7-.2-.2-2.2.2-4.3 1-2.2.7-5.1 1.1-6.5.8-4.8-1.1-5.1-2-4.4-11 .4-4.5.4-8.3 0-8.3s-1.9 1.4-3.3 3c-1.4 1.7-4.7 4.2-7.3 5.5-2.7 1.3-5.8 3.7-7 5.2-1.9 2.4-2.1 3.6-1.6 8.3.4 3 .9 6.5 1.3 7.7l.5 2.4-3.6-2.2c-8.1-4.8-10.5-11-6.7-17.3 5.1-8.3 4.6-14.6-1.6-22.4-4.2-5.1-7-6.7-14.6-8.1-7.8-1.4-12.6-3.8-14.8-7.5-2.6-4.3-2.4-5.6 1.6-11.5 3.8-5.5 4.5-10 1.9-12.2-.9-.8-4.2-1.9-7.3-2.4-5.3-1-5.6-1.1-6.2-4.5-.7-4.5-3.4-9.6-5.4-10.4-.9-.3-2.9-.6-4.5-.6-1.5 0-3.8-.9-5.1-1.9-2.2-1.7-2.4-2.8-2.7-12.1l-.4-10.1-3.9-2.5c-4.5-2.8-4.2-1.9-4.4-14.9 0-5.5-.7-13.1-1.4-17-1.8-9.7-1-16.1 2.6-18.8 6-4.6 16.1-15.5 20.7-22.5 2.7-3.9 5.2-7.2 5.7-7.2.4 0 1.7 3 2.9 6.6 2 5.8 10.6 20.4 13 21.9.6.3-.8-2.9-3-7.2-5.8-11.5-7.4-18.7-6.6-30.8.3-5.5 1.2-13.6 2-18 .9-4.4 1.5-11.8 1.4-16.5 0-4.7-.3-7.4-.5-6-3.9 23.6-9.6 38.6-20.3 53.5-15.1 21-34.8 34.4-58.7 40.1-13.9 3.2-20.4 5.8-23.9 9.5-5.5 5.8-8.6 7.1-15.3 6.3-5.4-.6-6.7-.3-12.5 2.4-6.2 2.9-6.6 3-6.6 1.1 0-5.5 4.6-11.3 13.6-17.2 3.6-2.4 5.1-4.1 5.7-6.7 3.5-13.3 4.9-16.7 8.3-20.4 4.8-5.2 5.4-7.2 5.4-17.5 0-9.4 1.5-15.5 8.4-34.6 3.6-9.7 14.1-31.9 19.1-40 7.1-11.6 21.2-23.1 38.7-31.5 6.8-3.3 10.2-4.2 17.8-5.1 5.2-.6 15-2.6 21.7-4.5 15.9-4.5 21.9-5 31.7-3s17.7.9 28.3-4c8.4-3.8 13.6-5.4 18.1-5.4 2.6 0 3.2.4 3.2 2 0 3.4 2.9 9.3 6.3 12.8 3.8 4 10.2 7.4 18.2 9.7 12.6 3.7 17.8 8.3 14.1 12.4-1 1.1-3.1 2.3-4.7 2.6-3.6.8-2.9 2.1 1.8 3.4 8.5 2.4 15.3-2.3 15.3-10.6 0-3.2-.5-4.2-3.6-6.2-6.9-4.7-6.8-7.8.4-13.7 16.4-13.6 19.1-18.3 16-28.6-1.4-4.7-8.1-12.5-15.3-17.8-6.1-4.5-17.7-10.5-22.3-11.5-1.8-.4-3.2-1-3-1.5.6-1.7 10.4-9 15.7-11.9 7.4-3.9 16.5-5.5 27.3-4.7 25.7 1.9 39.3 12.2 69.8 53.1 24.9 33.3 35.2 42.5 47.5 42.5 11.1-.1 19-5.9 25-18.5 6.2-13.1 8-29.5 5-46.5-4.1-23.1-12.8-38-29.7-50.8-7.7-5.8-19.4-11.5-26.6-13.1-8-1.7-21.7-1.3-34.7.9-7.2 1.2-16.2 2-23.3 2-10.2 0-12.4-.3-16.8-2.4-2.8-1.3-6.1-3.8-7.3-5.5l-2.2-3.1h4.3c4.8 0 11.9-3.3 26.1-12.3 15.1-9.5 25.5-12.5 44.2-12.6 6.6-.1 15.9.4 20.6.9zm-63.3 142.5c8.9 2.4 17.4 6.7 23.1 11.9 3.7 3.2 19.3 24.5 21.8 29.6 1.2 2.5 3.3 8.4 4.8 13.3 1.4 4.8 4 11.1 5.7 14 4.1 7 14 20.7 16.8 23.2 3 2.7 4.6 6.2 5.5 11.5 1.6 10.8 5.4 16 11.9 16.3 4.4.2 4.6 1.7.6 5.1-4 3.3-7.3 3.8-21.6 3.4-11-.3-12.3-.5-17.9-3.4-3.3-1.7-8.4-3.7-11.3-4.3-6-1.2-15.5-5.7-20.6-9.6-1.9-1.4-6.9-4.6-11.2-7-7.5-4.3-7.9-4.7-10.1-10.6-2.8-7.6-2.9-8.7-.1-11.6l2.1-2.3h-2.6c-1.5 0-5.3 1.3-8.4 3-6.3 3.4-10.9 3.8-12.9 1.2-2-2.6-1.8-2.7 3.6-2.7 6.8 0 9.5-2.7 9.5-9.5 0-5.9 1.4-6.4 5.3-2 2.9 3.3 6.2 4 6.2 1.2 0-4.3-2.2-8.9-5.7-11.9l-3.8-3.2 2.7-2.8c3.6-3.7 4.9-10.7 3.8-19.6-.9-7.6-1.9-9.5-9.6-17.8-4.6-5-5.4-6.4-5.4-9.8 0-3.1.6-4.4 2.6-6 3.4-2.6 3.9-2.6 15.2.4zM436 309.2c-.1.2-.7 2.5-1.4 5.2l-1.3 4.9-2.1-3.5c-2.8-4.5-2.8-5.6.1-6.1 3-.6 4.7-.7 4.7-.5zm21.4 27.5c.4 1.6 2.3 7.8 4.2 13.9 2.4 7.4 3.4 12.5 3.2 15.3l-.3 4.3-4.4-8.3c-2.4-4.6-6.6-11.8-9.2-16-2.7-4.2-4.9-7.9-4.9-8.2 0-.4 1-.7 2.3-.7 1.3 0 3.2-.7 4.3-1.5 2.8-2.1 4.1-1.8 4.8 1.2z"/><path d="M312 253.1c-2.8 3.3-4.3 4.2-7.8 4.6-2.6.4-4.6 1.2-5.2 2.3-.7 1.3-2.6 1.9-7 2.2-4.6.3-6.6 1-8.6 2.9-3.5 3.1-8.4 10.8-8.4 13 0 .9-1.5 2.6-3.4 3.7-2.5 1.5-3.8 3.2-4.5 6-1.1 4.1-3.5 7.1-8.6 11-2.5 1.9-2 1.8 3-.7 3.3-1.6 7.8-4.8 10-7.1s5.5-4.8 7.3-5.5c2.1-1 3.2-2.1 3.2-3.5 0-2.3 3.4-9.6 5.8-12.3.8-.9 2.8-1.7 4.5-1.7h3l-.5 7.9c-.3 5.3-1.1 8.8-2.2 10.7l-1.8 2.7 2.7-.7c7.5-1.9 16.2-10.5 19.6-19.5 1.9-4.8 3.9-20.1 2.8-20.1-.3 0-2 1.8-3.9 4.1zM352 261c0 3.1 1.9 5.5 5.1 6.5 1.2.4 3 1.6 4.1 2.7 1.4 1.4 2.7 1.8 4.4 1.4 2.2-.6 2.8.1 6.4 7.6 2.2 4.5 4.7 10.6 5.5 13.6 1.2 4.9 10.3 21.7 11.2 20.8.2-.2-.2-2-1.1-3.9-.8-1.9-2.2-6.9-3.1-11.1-1.1-4.9-2.5-8.4-4.1-10.1-3.3-3.5-6.6-10.3-10-20.3-2.2-6.6-3.1-8.1-4.3-7.6-3.6 1.5-6.8 1.4-10.3-.4l-3.8-2v2.8zM330.5 282.4c-4.9 1.2-15.9 6.7-17 8.6-.3.5 2.7-.4 6.7-2.1 4-1.6 10.7-3.5 14.8-4 11.9-1.6 14.4.2 15.7 11.3.7 5.6.9 5.5-13.7 6.2-11.9.6-22.9 2.6-26.3 4.9-2.2 1.4-2.7 2.5-2.7 5.8 0 5.9 2.3 10.2 7.5 14.2 6.9 5.3 14.5 7.9 25 8.4 7.4.4 9.6.1 12.4-1.4 4-2.1 6.8-5.6 7.6-9.8.7-3 .7-3-1.2.5-1 1.9-3.4 4.5-5.3 5.8-3.2 2.2-4.3 2.3-12.5 2-11-.5-17.4-3.1-23.6-9.4l-4.4-4.5 3-2.3c2.8-2.2 9-3.9 10.8-2.9.4.2.7 2.1.7 4.3 0 2.8.7 4.6 2.9 6.9 2.5 2.7 3.6 3.1 7.9 3.1 5.6 0 9.2-2.2 11.1-6.8 1.2-2.8.5-5.7-2.6-11.3-.8-1.4 8.3-1.7 11-.4 3.3 1.6 3.3 1.2.3-4.1-1.3-2.3-2.6-6.6-3-9.7-.5-3.4-1.8-7.2-3.6-10.1l-3-4.6-6.7.1c-3.8 0-9.1.6-11.8 1.3zM365.6 334.4c-.5 2.4-2 4.6-4.9 7.1-4.2 3.5-4.2 3.6-1.2 2.9 4.5-.9 7.5-4.7 7.5-9.5s-.6-5-1.4-.5zM374.9 374.3c-8 3.4-11.4 6.1-13.8 11-4.3 8.8-1.7 22.3 5.4 28.7 2.5 2.2 2.7 2.3 2.1.5-.4-1.1-1-3.5-1.3-5.4-.6-3.1-.4-3.3 1.7-2.6 2.7.9 4-.7 4-5.2s.9-6.2 4.1-7.8c3.7-1.9 8.9-1.9 11.7.1 2.9 2 2.8.2-.2-3.3-2.2-2.5-3-2.8-9.1-2.8-6.4 0-6.8.1-10.2 3.8-3.9 4.3-4.8 4.3-3.8-.3 2.2-9.9 16.9-15.8 32.1-13 5.3 1 8.3 2.4 14.3 6.5 4.2 2.9 9.9 6.4 12.7 7.8 2.7 1.4 8.9 5.5 13.8 9.1 8.4 6.2 13.2 8.3 17.3 7.4 1.2-.3.5-.8-2.2-1.6-2.5-.8-7-3.9-11.9-8.2-4.4-3.9-10.5-8.5-13.5-10.2-3.1-1.7-8.4-5.1-11.7-7.5-10-7-14.5-8.6-25.9-9-8.8-.3-10.7-.1-15.6 2z"/><path d="M385.2 404c-3.3 3.1-3 8.4.7 12.1 5.6 5.6 15.1 2.9 13.4-3.9-.5-2.2-.3-2.4 1.8-1.7 7.6 2.2 16.4 11.9 19.8 21.9 1.7 5.2 2 5.6 2.1 2.9 0-4.8-2-13.3-4.2-17.6-2.5-5.1-10-12.5-14.3-14.3-1.9-.8-6.5-1.4-10.3-1.4-5.5 0-7.3.4-9 2zM311.7 414.8c-2.4 2.6-2.3 8.5 0 8 1-.2 2.4-1.5 3.1-3 1.2-2.5 5.5-4.6 10.2-4.9 2.8-.2-3.5-1.7-7.6-1.8-2.8-.1-4.6.5-5.7 1.7z"/></svg>